<mxfile host="app.diagrams.net" modified="2023-08-24T11:41:30.791Z" agent="Mozilla/5.0 (Macintosh; Intel Mac OS X 10_15_7) AppleWebKit/537.36 (KHTML, like Gecko) Chrome/115.0.0.0 Safari/537.36" etag="R2AwC7zKl7OnuHv5gufa" version="21.6.6" type="github">
  <diagram id="C5RBs43oDa-KdzZeNtuy" name="Page-1">
    <mxGraphModel dx="1481" dy="821" grid="1" gridSize="10" guides="1" tooltips="1" connect="1" arrows="1" fold="1" page="1" pageScale="1" pageWidth="827" pageHeight="1169" math="0" shadow="0">
      <root>
        <mxCell id="WIyWlLk6GJQsqaUBKTNV-0" />
        <mxCell id="WIyWlLk6GJQsqaUBKTNV-1" parent="WIyWlLk6GJQsqaUBKTNV-0" />
        <mxCell id="v1Ew5sEN9AF9nVpZrV5F-2" value="" style="edgeStyle=orthogonalEdgeStyle;rounded=0;orthogonalLoop=1;jettySize=auto;html=1;" edge="1" parent="WIyWlLk6GJQsqaUBKTNV-1" source="v1Ew5sEN9AF9nVpZrV5F-0" target="v1Ew5sEN9AF9nVpZrV5F-1">
          <mxGeometry relative="1" as="geometry">
            <Array as="points">
              <mxPoint x="360" y="600" />
              <mxPoint x="360" y="600" />
            </Array>
          </mxGeometry>
        </mxCell>
        <mxCell id="v1Ew5sEN9AF9nVpZrV5F-20" value="" style="edgeStyle=orthogonalEdgeStyle;rounded=0;orthogonalLoop=1;jettySize=auto;html=1;" edge="1" parent="WIyWlLk6GJQsqaUBKTNV-1" source="v1Ew5sEN9AF9nVpZrV5F-0" target="v1Ew5sEN9AF9nVpZrV5F-15">
          <mxGeometry relative="1" as="geometry" />
        </mxCell>
        <mxCell id="v1Ew5sEN9AF9nVpZrV5F-0" value="kube-proxy" style="rounded=1;whiteSpace=wrap;html=1;" vertex="1" parent="WIyWlLk6GJQsqaUBKTNV-1">
          <mxGeometry x="320" y="520" width="120" height="40" as="geometry" />
        </mxCell>
        <mxCell id="v1Ew5sEN9AF9nVpZrV5F-3" style="edgeStyle=orthogonalEdgeStyle;rounded=0;orthogonalLoop=1;jettySize=auto;html=1;" edge="1" parent="WIyWlLk6GJQsqaUBKTNV-1" source="v1Ew5sEN9AF9nVpZrV5F-1">
          <mxGeometry relative="1" as="geometry">
            <mxPoint x="400" y="560" as="targetPoint" />
            <Array as="points">
              <mxPoint x="400" y="560" />
            </Array>
          </mxGeometry>
        </mxCell>
        <mxCell id="v1Ew5sEN9AF9nVpZrV5F-1" value="iptables/ipvs" style="rounded=1;whiteSpace=wrap;html=1;" vertex="1" parent="WIyWlLk6GJQsqaUBKTNV-1">
          <mxGeometry x="320" y="640" width="120" height="40" as="geometry" />
        </mxCell>
        <mxCell id="v1Ew5sEN9AF9nVpZrV5F-7" value="" style="edgeStyle=orthogonalEdgeStyle;rounded=0;orthogonalLoop=1;jettySize=auto;html=1;" edge="1" parent="WIyWlLk6GJQsqaUBKTNV-1" source="v1Ew5sEN9AF9nVpZrV5F-5" target="v1Ew5sEN9AF9nVpZrV5F-1">
          <mxGeometry relative="1" as="geometry" />
        </mxCell>
        <mxCell id="v1Ew5sEN9AF9nVpZrV5F-5" value="client" style="rounded=1;whiteSpace=wrap;html=1;" vertex="1" parent="WIyWlLk6GJQsqaUBKTNV-1">
          <mxGeometry x="320" y="760" width="120" height="40" as="geometry" />
        </mxCell>
        <mxCell id="v1Ew5sEN9AF9nVpZrV5F-12" value="" style="edgeStyle=orthogonalEdgeStyle;rounded=0;orthogonalLoop=1;jettySize=auto;html=1;" edge="1" parent="WIyWlLk6GJQsqaUBKTNV-1" source="v1Ew5sEN9AF9nVpZrV5F-9" target="v1Ew5sEN9AF9nVpZrV5F-0">
          <mxGeometry relative="1" as="geometry" />
        </mxCell>
        <mxCell id="v1Ew5sEN9AF9nVpZrV5F-9" value="apiserver" style="rounded=1;whiteSpace=wrap;html=1;" vertex="1" parent="WIyWlLk6GJQsqaUBKTNV-1">
          <mxGeometry x="120" y="520" width="120" height="40" as="geometry" />
        </mxCell>
        <mxCell id="v1Ew5sEN9AF9nVpZrV5F-13" value="Backend Pod&lt;br&gt;labels: app=myapp&lt;br&gt;port: 8080" style="whiteSpace=wrap;html=1;rounded=1;" vertex="1" parent="WIyWlLk6GJQsqaUBKTNV-1">
          <mxGeometry x="170" y="380" width="120" height="60" as="geometry" />
        </mxCell>
        <mxCell id="v1Ew5sEN9AF9nVpZrV5F-15" value="Backend Pod&lt;br&gt;labels: app=myapp&lt;br&gt;port: 8080" style="whiteSpace=wrap;html=1;rounded=1;" vertex="1" parent="WIyWlLk6GJQsqaUBKTNV-1">
          <mxGeometry x="320" y="380" width="120" height="60" as="geometry" />
        </mxCell>
        <mxCell id="v1Ew5sEN9AF9nVpZrV5F-16" value="Backend Pod&lt;br&gt;labels: app=myapp&lt;br&gt;port: 8080" style="whiteSpace=wrap;html=1;rounded=1;" vertex="1" parent="WIyWlLk6GJQsqaUBKTNV-1">
          <mxGeometry x="470" y="380" width="120" height="60" as="geometry" />
        </mxCell>
        <mxCell id="v1Ew5sEN9AF9nVpZrV5F-18" value="" style="endArrow=classic;html=1;rounded=0;entryX=0.75;entryY=1;entryDx=0;entryDy=0;" edge="1" parent="WIyWlLk6GJQsqaUBKTNV-1" target="v1Ew5sEN9AF9nVpZrV5F-13">
          <mxGeometry width="50" height="50" relative="1" as="geometry">
            <mxPoint x="330" y="520" as="sourcePoint" />
            <mxPoint x="380" y="470" as="targetPoint" />
          </mxGeometry>
        </mxCell>
        <mxCell id="v1Ew5sEN9AF9nVpZrV5F-19" value="" style="endArrow=classic;html=1;rounded=0;entryX=0.25;entryY=1;entryDx=0;entryDy=0;" edge="1" parent="WIyWlLk6GJQsqaUBKTNV-1" target="v1Ew5sEN9AF9nVpZrV5F-16">
          <mxGeometry width="50" height="50" relative="1" as="geometry">
            <mxPoint x="430" y="520" as="sourcePoint" />
            <mxPoint x="360" y="440" as="targetPoint" />
          </mxGeometry>
        </mxCell>
        <mxCell id="v1Ew5sEN9AF9nVpZrV5F-21" value="(1) watch&amp;nbsp; services and endpoints" style="text;html=1;strokeColor=none;fillColor=none;align=center;verticalAlign=middle;whiteSpace=wrap;rounded=0;" vertex="1" parent="WIyWlLk6GJQsqaUBKTNV-1">
          <mxGeometry x="170" y="560" width="190" height="30" as="geometry" />
        </mxCell>
        <mxCell id="v1Ew5sEN9AF9nVpZrV5F-22" value="(2) open proxy port and set portal rules (iptables or ipvs)" style="text;html=1;strokeColor=none;fillColor=none;align=center;verticalAlign=middle;whiteSpace=wrap;rounded=0;" vertex="1" parent="WIyWlLk6GJQsqaUBKTNV-1">
          <mxGeometry x="170" y="600" width="190" height="30" as="geometry" />
        </mxCell>
        <mxCell id="v1Ew5sEN9AF9nVpZrV5F-24" value="(3) access my service&lt;br&gt;connect to cluster ip" style="text;html=1;strokeColor=none;fillColor=none;align=center;verticalAlign=middle;whiteSpace=wrap;rounded=0;" vertex="1" parent="WIyWlLk6GJQsqaUBKTNV-1">
          <mxGeometry x="360" y="710" width="190" height="30" as="geometry" />
        </mxCell>
        <mxCell id="v1Ew5sEN9AF9nVpZrV5F-25" value="(4) redirect to (random) proxy port" style="text;html=1;strokeColor=none;fillColor=none;align=center;verticalAlign=middle;whiteSpace=wrap;rounded=0;" vertex="1" parent="WIyWlLk6GJQsqaUBKTNV-1">
          <mxGeometry x="400" y="590" width="190" height="30" as="geometry" />
        </mxCell>
        <mxCell id="v1Ew5sEN9AF9nVpZrV5F-26" value="(5) proxy to a backend" style="text;html=1;strokeColor=none;fillColor=none;align=center;verticalAlign=middle;whiteSpace=wrap;rounded=0;" vertex="1" parent="WIyWlLk6GJQsqaUBKTNV-1">
          <mxGeometry x="460" y="480" width="140" height="30" as="geometry" />
        </mxCell>
      </root>
    </mxGraphModel>
  </diagram>
</mxfile>
